<?xml version="1.0" encoding="utf-8"?>
<!-- Generator: Adobe Illustrator 23.0.2, SVG Export Plug-In . SVG Version: 6.00 Build 0)  -->
<svg version="1.1" id="Layer_1" xmlns="http://www.w3.org/2000/svg" xmlns:xlink="http://www.w3.org/1999/xlink" x="0px" y="0px"
	 viewBox="0 0 283.46 283.46" style="enable-background:new 0 0 283.46 283.46;" xml:space="preserve">
<style type="text/css">
	.st0{fill:#EB8A00;}
	.st1{fill:#C66D14;}
</style>
<circle class="st0" cx="142.19" cy="141.84" r="141.73"/>
<circle class="st1" cx="142.19" cy="141.84" r="101.24"/>
<g>
	<path class="st0" d="M98.5,162.44c11.5-2.54,23.17-3.04,26.55-2.54c3.04,11.5,9.98,17.59,15.39,17.59c4.9,0,9.3-2.71,9.3-7.78
		c0-9.64-10.82-12.68-20.97-18.26c-15.05-7.95-29.6-16.57-29.6-40.76c0-16.07,12.68-29.26,33.65-30.27
		c-0.17-4.57-0.51-14.37-0.34-15.05c0.17-0.85,15.05-2.54,15.22-1.69c0.17,0.85,0.34,14.04,0.51,18.43c4.4,1.35,7.95,3.21,9.64,4.9
		l1.18-8.12c0,0,14.21-0.68,22.49,2.87c0.85,0.34-2.03,32.98-2.03,38.39c0,2.54-26.38,2.37-26.38,1.69
		c-0.84-9.81-6.59-13.53-11.84-13.53c-3.04,0-9.3,1.52-9.3,8.29c0,6.09,12.68,9.81,25.2,17.25c15.05,8.79,27.73,17.76,27.73,38.56
		c0,18.43-15.39,32.3-31.62,33.32c0.34,7.1,0,16.07,0,16.57c0,0.51-16.07-0.17-16.4-0.17s-1.18-10.99-1.52-18.26
		c-7.44-2.2-12.01-5.58-13.53-7.44c-0.34,3.72-0.68,10.49-0.85,10.49c-0.85-0.34-22.15-1.52-22.15-1.52
		C98.5,201.68,98.5,171.24,98.5,162.44z"/>
</g>
</svg>
