<?xml version="1.0" encoding="utf-8"?>
<!-- Generator: Adobe Illustrator 23.0.2, SVG Export Plug-In . SVG Version: 6.00 Build 0)  -->
<svg version="1.1" id="Layer_1" xmlns="http://www.w3.org/2000/svg" xmlns:xlink="http://www.w3.org/1999/xlink" x="0px" y="0px"
	 viewBox="0 0 283.46 283.46" style="enable-background:new 0 0 283.46 283.46;" xml:space="preserve">
<style type="text/css">
	.st0{fill:#66B32E;}
	.st1{fill:#4E8030;}
</style>
<g>
	<circle class="st0" cx="141.73" cy="141.84" r="141.73"/>
	<circle class="st1" cx="141.73" cy="141.84" r="101.24"/>
	<g>
		<path class="st0" d="M83.84,150.6c0.34-0.17,4.74,0,6.26,0c-0.17-2.2-0.34-4.74-0.34-7.27c-4.9,0.34-8.29,0.34-8.46,0.34
			c-0.68,0-2.37-13.53-1.52-13.7c0.17,0,4.57,0,10.82-0.17c4.57-33.99,27.4-46.34,48.54-46.34c12.85,0,19.45,6.43,19.96,7.27
			c0.34-2.03,1.35-7.61,1.86-9.64c1.86,0.17,18.26,1.01,25.37,4.9c0.68,1.18-0.85,43.12-0.85,43.12l-23,1.86
			c0,0-5.92-18.26-21.14-18.26c-8.62,0-14.54,5.92-17.08,16.91c12.51-0.17,24.52-0.17,24.69,0c0.34,0.34,1.01,9.13,0.34,10.48
			c-0.34,0.68-12.51,1.35-26.38,2.03v0.51c0,2.71,0.17,5.07,0.51,7.1c11.67-0.17,21.31-0.51,21.48-0.34
			c0.17,0.34-0.85,12.35-0.85,12.35s-6.43,0.85-14.88,1.69c4.74,6.26,11.16,9.3,15.9,9.3c10.82,0,19.11-9.3,20.8-11.67
			c8.62,5.75,22.15,19.62,22.15,19.62s-10.65,25.54-42.96,25.54c-20.63,0-42.95-13.19-51.58-39.06c-5.41,0.51-8.96,0.84-8.96,0.68
			C84.52,167.52,83.84,150.6,83.84,150.6z"/>
	</g>
</g>
</svg>
