<?xml version="1.0" encoding="utf-8"?>
<!-- Generator: Adobe Illustrator 23.0.2, SVG Export Plug-In . SVG Version: 6.00 Build 0)  -->
<svg version="1.1" id="Layer_1" xmlns="http://www.w3.org/2000/svg" xmlns:xlink="http://www.w3.org/1999/xlink" x="0px" y="0px"
	 viewBox="0 0 283.46 283.46" style="enable-background:new 0 0 283.46 283.46;" xml:space="preserve">
<style type="text/css">
	.st0{fill:#00B6E3;}
	.st1{fill:#037EA5;}
</style>
<g>
	<circle class="st0" cx="141.96" cy="141.84" r="141.73"/>
	<circle class="st1" cx="141.96" cy="141.84" r="101.24"/>
	<g>
		<path class="st0" d="M104.26,176.44c1.86-1.01,11.84-0.85,11.84-0.85s-1.52-65.62-2.03-65.79c-0.51-0.17-11.5,0.34-11.5,0.34
			s-1.86-27.4-0.68-27.73c1.18-0.34,28.58-0.85,42.45-0.85c24.18,0,48.2,5.58,47.86,37.88c-0.34,35.01-30.78,38.22-47.18,38.22
			c-0.17,9.81,0.17,16.74,0.17,17.08c0,0.34,15.9,2.88,16.4,2.88s1.18,22.32,0.34,23.34s-55.81-0.34-55.81-0.34
			C105.95,200.62,102.4,177.45,104.26,176.44z M163.11,119.45c0-11.84-18.6-9.13-18.6-9.13l0.68,20.97
			C145.18,131.45,163.11,132.3,163.11,119.45z"/>
	</g>
</g>
</svg>
