<?xml version="1.0" encoding="utf-8"?>
<!-- Generator: Adobe Illustrator 23.0.2, SVG Export Plug-In . SVG Version: 6.00 Build 0)  -->
<svg version="1.1" id="Layer_1" xmlns="http://www.w3.org/2000/svg" xmlns:xlink="http://www.w3.org/1999/xlink" x="0px" y="0px"
	 viewBox="0 0 283.46 283.46" style="enable-background:new 0 0 283.46 283.46;" xml:space="preserve">
<style type="text/css">
	.st0{fill:#FEEB15;}
	.st1{fill:#D3C119;}
</style>
<g>
	<circle class="st0" cx="142.5" cy="141.84" r="141.73"/>
	<circle class="st1" cx="142.5" cy="141.84" r="101.24"/>
	<g>
		<path class="st0" d="M95.41,177.96c2.88,0,10.82-0.68,10.82-1.69v-67.81c0,0-10.82,0.34-11.16-0.51
			c-0.34-0.85,0.17-25.37,0.85-26.04c0.68-0.68,35.85,0.51,45.49,0.51c16.4,0,49.04,0.34,49.04,31.12c0,23.84-16.4,31.96-16.4,31.96
			l16.4,33.48c0,0,9.98-0.34,9.98,0s1.35,21.14,0.85,22.15s-50.9,0.85-51.24-0.68c-0.34-1.52-0.68-20.97,0.34-20.97
			c1.02,0,7.78-0.17,7.78-1.01s-11.16-25.37-11.67-25.37s-12.35,1.35-12.85,1.35s-0.85,24.01,0.51,24.01c1.35,0,7.27,0.51,7.27,0.68
			c0,0.17,0.51,20.97,0,21.48s-45.15-0.51-45.15-0.51C96.25,200.62,92.53,177.96,95.41,177.96z M155.78,116.06
			c0-10.15-21.48-7.44-21.48-7.44s-0.17,20.8-0.17,20.46C135.15,128.58,155.78,131.62,155.78,116.06z"/>
	</g>
</g>
</svg>
